<svg width="80" height="73" viewBox="0 0 80 73" fill="none" xmlns="http://www.w3.org/2000/svg">
<g id="Layer_1" clip-path="url(#clip0_1802_5637)">
<path id="Vector" d="M0 40.7542V39.8144C0.308333 39.4368 0.5 39.118 1.025 39.034C1.8 38.9082 4.26667 38.925 5.08333 39.0173C6.675 39.2019 6.675 41.3583 5.08333 41.5429C4.26667 41.6352 1.80833 41.652 1.025 41.5261C0.5 41.4422 0.308333 41.1318 0 40.7458L0 40.7542Z" fill="#1A3F70"/>
<path id="Vector_2" d="M80 39.806V40.7458C79.6916 41.1234 79.5 41.4422 78.975 41.5261C78.2 41.652 75.7333 41.6352 74.9167 41.5429C73.325 41.3583 73.325 39.2019 74.9167 39.0173C75.7333 38.925 78.1916 38.9082 78.975 39.034C79.5 39.118 79.6916 39.4284 80 39.8144V39.806Z" fill="#1A3F70"/>
<path id="Vector_3" d="M58.5917 58.8447L58.1083 59.3817C48.1417 63.5603 38.2417 68.3179 28.1167 72.1357C27.55 72.3539 26.875 72.6979 26.3167 72.8406C20.9583 74.1747 18.35 66.7153 23.175 64.1729L47.3333 50.8902C47.5333 50.8315 49.125 52.6942 48.9917 52.8788L23.7583 66.8076C22.2167 68.2676 23.6333 71.0701 25.75 70.3904L54.2167 58.4587C54.7583 58.0979 55.675 58.8531 56.0167 58.8531H58.5917V58.8447Z" fill="#1A3F70"/>
<path id="Vector_4" d="M33.4917 29.9971C33.65 30.1649 34.5833 30.618 34.2167 30.9201C31.6083 32.3633 28.075 32.7074 27.675 36.2902C27.275 39.8731 28.225 42.2561 26.225 45.3691C24.9667 47.3241 22.4167 50.026 21.5 51.9391C20.7333 53.5333 22.1417 54.5738 23.6583 53.9613C24.1167 53.7767 24.5083 53.3068 24.85 52.9544C27.075 50.6972 29.05 47.7269 31.225 45.3775C31.85 44.2195 31.5833 39.8228 33.7583 40.5108C34.6583 40.7961 34.5667 41.6016 34.4917 42.3652C34.225 44.8992 33.6583 46.376 32.1167 48.3143C30.1333 50.7979 27.8833 53.0886 25.8583 55.5471C22.2083 58.6182 16.9833 55.0269 19.3083 50.6805C20.4083 48.6331 24.8 44.0014 25 42.0967C25.4083 38.2872 24.2167 34.2177 27.65 31.3984C28.175 30.9705 31.9667 28.9986 32.45 28.9902C32.8583 28.9902 33.2333 29.737 33.4917 30.0055V29.9971Z" fill="#1A3F70"/>
<path id="Vector_5" d="M48.2416 40.7961C48.8166 41.3751 48.9916 44.1776 49.3416 45.109C49.575 45.7131 50.6333 46.8626 51.1 47.4332C52.8 49.5309 54.65 51.5279 56.4166 53.5669C57.6416 54.3389 59.1916 53.4243 58.6333 51.9643C57.2667 49.6148 55.4666 47.3409 54.1583 44.9831C52.4666 41.9372 53.6 39.2522 52.9333 36.1476C52.1666 32.5647 48.6333 32.162 45.9417 30.6013L47.7083 28.6546C49.9416 29.8209 52.2917 30.4083 53.9083 32.4976C56.3083 35.6022 55.325 39.3277 55.8583 42.9609C56.8583 45.2852 60.8583 49.6148 61.2166 51.8804C61.775 55.4548 57.675 57.6784 54.8 55.5136C53.525 54.557 48.9083 48.952 47.825 47.4332C47.4583 46.9298 47.2 46.5102 47 45.9061C46.7667 45.2013 46.0583 42.2393 46.1 41.6184C46.175 40.4772 47.525 40.0493 48.25 40.7961H48.2416Z" fill="#1A3F70"/>
<path id="Vector_6" d="M39.3417 12.6365C41.9917 12.3596 44.7667 13.87 45.9167 16.3117C46.8 18.1745 46.8167 23.4774 46.2917 25.4577C44.4667 32.3717 34.1083 31.541 33.4417 24.1487C33 19.3324 33.3417 13.2574 39.3417 12.6281V12.6365ZM39.4917 15.1538C37.6583 15.3803 36.1333 16.9662 35.9333 18.8122C35.8 20.0708 35.8 23.9138 36.175 25.0214C37.375 28.5874 42.625 28.5791 43.825 25.0214C44.2 23.9138 44.2 20.0708 44.0667 18.8122C43.825 16.555 41.725 14.8853 39.5 15.1538H39.4917Z" fill="#1A3F70"/>
<path id="Vector_7" d="M43.2833 68.5949L46.6333 67.1852L54.9167 70.4912C56.5667 70.4408 57.4 68.4606 56.5417 67.1181C55.9833 66.2538 53.5667 65.3896 52.6583 64.8106C52.5917 64.4498 52.6833 64.5589 52.8583 64.4666C53.1 64.3323 55.2833 63.4345 55.425 63.4345C55.5917 63.4345 57.15 64.3407 57.4 64.5253C61.6583 67.6803 58.4583 74.267 53.45 72.7483L43.2833 68.5865V68.5949Z" fill="#1A3F70"/>
<path id="Vector_8" d="M39.6417 0.0335872C40.2083 -0.0922748 40.8833 0.100714 41.1333 0.671288C41.3167 1.116 41.3417 4.83313 41.2167 5.39531C40.9417 6.63715 38.925 6.6791 38.75 5.11841C38.6583 4.29612 38.6417 1.82083 38.7667 1.03209C38.8417 0.570599 39.1833 0.134277 39.65 0.0335872H39.6417Z" fill="#1A3F70"/>
<path id="Vector_9" d="M12.1417 11.5206C12.6 11.3863 13.0417 11.487 13.4333 11.7304C13.775 11.9485 15.825 14.021 16.1 14.3986C17.1583 15.8754 15.8417 17.1592 14.4833 16.3369C14.1667 16.1439 11.8583 13.8448 11.6583 13.5176C11.2417 12.8463 11.3333 11.7555 12.15 11.5122L12.1417 11.5206Z" fill="#1A3F70"/>
<path id="Vector_10" d="M66.9833 11.5206C68.225 11.2353 69 12.3009 68.4167 13.4337C68.2917 13.6854 65.9167 16.0768 65.6167 16.2782C64.3083 17.1592 62.8917 15.9845 63.775 14.5832C64.0667 14.1217 66.575 11.6129 66.9833 11.5206Z" fill="#1A3F70"/>
<path id="Vector_11" d="M71.4583 25.8605C71.7083 25.6339 75.3667 24.1068 75.725 24.0816C77.0333 23.9893 77.5417 25.6591 76.4667 26.4143C76.075 26.6912 73 27.9582 72.5667 28.0001C71.25 28.1344 70.5833 26.6576 71.4583 25.8521V25.8605Z" fill="#1A3F70"/>
<path id="Vector_12" d="M8.54167 25.8604C9.41667 26.6576 8.75 28.1343 7.43334 28.0085C7.04167 27.9665 3.88334 26.666 3.53334 26.4226C2.45834 25.6675 2.95834 23.9977 4.275 24.09C4.65834 24.1152 8.25834 25.6087 8.54167 25.8688V25.8604Z" fill="#1A3F70"/>
<path id="Vector_13" d="M7.14167 52.5851C8.70834 52.2495 9.56667 53.7766 8.35834 54.75C8.01667 55.0269 4.82501 56.403 4.40834 56.4533C3.20001 56.6127 2.41667 55.1611 3.35001 54.2717L7.13334 52.5768L7.14167 52.5851Z" fill="#1A3F70"/>
<path id="Vector_14" d="M71.825 52.5851C72.175 52.4761 72.6167 52.5348 72.9667 52.6271C73.3917 52.7362 76.2584 53.978 76.55 54.213C77.6 55.052 76.85 56.6295 75.5834 56.4617C75.1917 56.4114 72.2 55.1443 71.8167 54.8926C70.875 54.2717 70.8334 52.8872 71.8167 52.5935L71.825 52.5851Z" fill="#1A3F70"/>
<path id="Vector_15" d="M24.8 3.0291C25.35 2.91162 25.8167 3.0291 26.1667 3.47381C26.4583 3.85139 27.8083 7.19933 27.825 7.64404C27.8667 8.98657 26.3917 9.46484 25.5583 8.34047C25.25 7.92933 23.9 4.61496 23.9167 4.19542C23.9333 3.68358 24.275 3.14657 24.8 3.0291Z" fill="#1A3F70"/>
<path id="Vector_16" d="M54.4917 3.02908C55.4583 2.81931 56.1833 3.4654 56.0667 4.44712C56.0167 4.84988 54.7083 7.97965 54.4417 8.33207C53.5333 9.57391 51.9833 8.90264 52.2167 7.35873C52.3 6.83011 53.7083 3.49057 54.0583 3.23046C54.1833 3.13816 54.325 3.05425 54.4833 3.02069L54.4917 3.02908Z" fill="#1A3F70"/>
<path id="Vector_17" d="M37.3417 53.6508C36.575 53.7095 35.3 54.9933 34.6417 54.8843C34.4167 54.8507 32.0333 53.4662 31.6 53.2145C31.4667 53.139 31.3417 53.2648 31.4 52.946L33.0333 51.1252L37.3333 53.6424L37.3417 53.6508Z" fill="#1A3F70"/>
<path id="Vector_18" d="M60.1167 8.2146C60.7333 8.08035 61.45 8.32368 61.65 8.96138C61.9667 9.94311 60.4167 12.3513 59.3333 12.2422C56.95 12.0072 59.1583 8.42437 60.1167 8.2146Z" fill="#1A3F70"/>
<path id="Vector_19" d="M70.2667 18.443C71.6667 18.1242 72.4583 19.71 71.3917 20.6834C70.5167 21.4889 68.0417 22.865 67.8417 20.8092C67.7583 19.9366 69.5583 18.594 70.2667 18.4346V18.443Z" fill="#1A3F70"/>
<path id="Vector_20" d="M19.175 8.21462C21.0083 7.81186 22.9833 12.2506 20.5417 12.2506C19.3417 12.2506 17.075 8.67612 19.175 8.21462Z" fill="#1A3F70"/>
<path id="Vector_21" d="M9.01668 18.443C9.91668 18.2416 12.1583 19.71 12.1583 20.6917C12.1583 21.6734 11.25 22.0258 10.4167 21.8413C10.1917 21.7909 8.59168 20.7337 8.42501 20.5407C7.83334 19.8442 8.10001 18.6444 9.00834 18.443H9.01668Z" fill="#1A3F70"/>
<path id="Vector_22" d="M32.3 2.71023C33.8917 2.23195 34.25 3.91851 34.3583 5.13517C34.55 7.3 32.5 7.56851 31.9583 5.98264C31.6833 5.17713 31.1833 3.04586 32.3 2.71023Z" fill="#1A3F70"/>
<path id="Vector_23" d="M46.675 2.71023C49.3417 1.90471 48.3167 6.41057 47.4667 6.80494C44.8333 8.03839 45.5167 3.05425 46.675 2.71023Z" fill="#1A3F70"/>
<path id="Vector_24" d="M4.96668 45.99C5.63334 45.9228 6.34168 45.8054 6.72501 46.485C7.19168 47.3241 6.78334 48.0877 5.93334 48.3814C5.14168 48.6582 3.02501 49.1617 2.68334 48.0373C2.21668 46.4682 3.76668 46.1158 4.95834 45.99H4.96668Z" fill="#1A3F70"/>
<path id="Vector_25" d="M73.8583 45.9816C74.5417 45.7802 77.075 46.1998 77.3083 47.0053C77.95 49.1701 75.4583 48.8261 74.1833 48.4233C72.7833 47.9786 72.775 46.3089 73.8583 45.9816Z" fill="#1A3F70"/>
<path id="Vector_26" d="M3.54999 31.8179C3.96665 31.7256 6.03332 32.12 6.39999 32.3466C7.27499 32.9004 6.96665 34.5198 5.86665 34.6289C5.40832 34.6792 3.63332 34.3352 3.22499 34.1254C2.26665 33.6136 2.48332 32.0445 3.54999 31.8179Z" fill="#1A3F70"/>
<path id="Vector_27" d="M75.75 31.8263C77.6667 31.6501 77.9667 33.7478 76.4417 34.2597C75.2667 34.6624 72.8417 35.082 73.1333 33.1353C73.2833 32.12 74.8833 31.9019 75.75 31.8263Z" fill="#1A3F70"/>
<path id="Vector_28" d="M27.1833 59.0041C27.275 59.13 24.7167 60.5564 24.4333 60.5732C23.9083 60.6068 22.1833 59.6335 21.7083 59.2391C22.3333 59.0629 23 59.2223 23.6417 59.1384C25 58.979 25.8167 58.1483 27.175 59.0041H27.1833Z" fill="#1A3F70"/>
<path id="Vector_29" d="M40.8917 33.7226C42.1417 34.8722 40.2 36.7769 39.0583 35.4847C37.9833 34.268 39.725 32.6486 40.8917 33.7226Z" fill="#1A3F70"/>
<path id="Vector_30" d="M40.8917 38.7571C42.1417 39.9067 40.2 41.8114 39.0583 40.5192C37.9833 39.3025 39.725 37.6831 40.8917 38.7571Z" fill="#1A3F70"/>
</g>
<defs>
<clipPath id="clip0_1802_5637">
<rect width="80" height="73" fill="white"/>
</clipPath>
</defs>
</svg>
