<svg width="70" height="72" viewBox="0 0 70 72" fill="none" xmlns="http://www.w3.org/2000/svg">
<g id="Layer_1" clip-path="url(#clip0_1802_5745)">
<path id="Vector" d="M44.7165 -0.00033084C47.0345 0.40183 49.1005 1.85638 49.501 4.29001L49.4276 32.7739C49.0178 33.3809 48.0985 33.582 47.574 33.0145C47.5232 32.96 47.2488 32.4582 47.2488 32.4244V8.29847H17.2767V22.8571C17.2767 22.9473 17.9309 24.0993 18.0512 24.4732C19.0777 27.6586 18.8408 33.2851 18.1941 36.5757C18.0851 37.1338 17.4647 38.9153 17.4741 39.1766C17.4854 39.4641 18.2524 40.6988 18.4254 41.1197C19.5458 43.8202 20.388 46.7105 20.5102 49.6553C20.6963 49.8413 24.8134 49.4129 25.7496 49.8319C26.8908 50.3431 26.2384 51.9048 25.7872 51.9048H20.7922L20.6512 56.1256H29.1655C29.8968 56.1256 30.4025 57.9503 29.2426 58.313L20.4632 58.3694C20.1211 58.4483 20.4764 60.8745 18.6416 60.4554C18.1452 60.3426 17.8915 59.7789 17.8858 59.3184C17.8727 58.3882 18.3088 56.8171 18.399 55.7723C18.7863 51.2376 18.1471 46.1411 16.3142 41.9635C16.0566 41.3753 15.0302 39.7422 15.0132 39.3119C14.9926 38.7988 15.5114 38.0321 15.6881 37.4458C16.5962 34.4408 16.7748 28.6809 16.0284 25.6497C15.7088 24.3492 15.2877 23.6877 13.8044 23.684C11.1274 23.6746 11.3116 26.3694 10.7326 28.2712C9.65538 31.8042 8.19654 35.2996 7.469 38.936C6.79974 42.2886 6.74522 45.6581 6.4745 49.0539L1.65243 54.361C-0.312121 54.6447 -0.374159 53.4251 0.672974 52.1171C1.79154 50.7227 3.28611 49.4918 4.29376 47.9997C4.48176 44.3783 4.69419 40.8096 5.52325 37.271C6.29591 33.9635 7.61375 30.6729 8.61953 27.4256C9.24931 25.3941 9.12712 23.481 11.1255 22.1937C12.323 21.4213 13.6578 21.4044 15.0226 21.519L15.017 4.70345C15.1768 2.22659 17.4158 0.283437 19.8071 -0.00408936H44.7146L44.7165 -0.00033084ZM47.2488 6.049C47.6078 3.65107 46.2336 2.40324 43.9476 2.24538C36.2511 1.71355 27.9342 2.64378 20.1737 2.26605C18.0888 2.50848 16.9778 3.97618 17.2729 6.049H47.2469H47.2488Z" fill="#1A3F70"/>
<path id="Vector_2" d="M42.1861 36.8541C42.7895 36.6399 43.1073 36.0629 43.7314 35.7999C45.5211 35.0463 47.3183 35.61 48.6061 36.9857C49.0498 36.8034 49.2641 36.3918 49.6852 36.125C51.3508 35.0726 53.6782 35.5255 54.9378 36.9857C56.3553 35.736 57.6524 35.0763 59.5681 35.7247C61.057 36.2283 61.5458 37.136 62.1906 38.4477C64.7681 43.6871 66.7834 49.4188 69.2875 54.7165L68.9397 59.8619C69.1634 60.8729 70.4587 62.3462 69.8289 63.2953C68.5674 65.2008 67.2082 61.8482 66.883 60.9067C66.3115 59.2549 67.3154 56.5337 66.883 54.7146C64.4447 49.8304 62.6493 44.4313 60.2186 39.5715C59.57 38.2767 58.489 36.8823 56.9681 38.1997C55.1371 39.7858 58.5905 42.9767 57.9758 44.4125C57.5472 45.416 56.5075 45.2375 55.9454 44.405C54.9115 42.8715 54.3437 39.891 53.2308 38.5379C51.9863 37.0251 49.7811 37.9723 50.095 39.985C50.3112 41.3681 52.1461 43.9408 52.1837 45.0871C52.2213 46.2335 50.7117 46.7259 50.0574 45.6547C48.796 43.5837 48.1248 40.5938 46.822 38.4722C45.6076 36.9556 43.3404 37.8933 43.6167 39.8421C43.8555 41.5241 45.8163 44.4275 46.369 46.241C46.634 47.1055 46.634 48.1127 45.4873 48.1221C44.5699 48.1297 44.4683 47.4907 44.1243 46.7954C41.0769 40.6352 38.8341 33.8699 35.6589 27.7566C33.9989 26.5407 32.2073 27.6082 32.6792 29.681C35.5818 36.7508 39.0334 43.6138 41.9229 50.6836C42.1598 51.2624 42.7576 52.4068 42.7482 52.95C42.7294 54.085 42.1786 55.8816 40.7197 55.1205C38.5202 53.3014 34.9464 50.2683 31.9009 50.8414C31.179 50.9767 30.5849 51.2248 30.8443 52.0498C31.006 52.5628 33.1247 54.7089 33.6643 55.2821C36.5237 58.3228 39.5278 61.2431 42.391 64.2819C43.9288 65.4226 47.6492 66.2438 48.8674 67.3733C49.1363 67.6232 50.0875 69.6904 50.2078 70.1132C50.4485 70.9514 50.4673 71.8853 49.3938 71.9906C48.0177 72.1259 47.8974 69.8501 47.1792 69.0627L41.0637 66.1743L35.7773 60.6286C32.4968 65.3437 27.0186 67.4259 21.3468 66.7512L17.8294 70.3951C16.7428 71.0961 15.5509 70.0531 16.1657 68.871C17.3933 68.0291 19.1736 65.1708 20.3166 64.5807C21.031 64.2123 21.4634 64.5562 22.1232 64.5694C27.0205 64.6671 31.4422 63.4381 34.0177 59.0049C32.6716 56.7197 26.1388 52.6944 29.3065 49.6537C32.055 47.0171 37.1177 49.4621 39.6463 51.3413L30.5398 30.4139C29.0809 25.2591 35.6796 22.8386 38.0821 27.3751L42.1823 36.8522L42.1861 36.8541Z" fill="#1A3F70"/>
</g>
<defs>
<clipPath id="clip0_1802_5745">
<rect width="70" height="72" fill="white"/>
</clipPath>
</defs>
</svg>
