<svg width="72" height="72" viewBox="0 0 72 72" fill="none" xmlns="http://www.w3.org/2000/svg">
<g id="Layer_1" clip-path="url(#clip0_1802_5734)">
<path id="Vector" d="M2.53026 72H1.68684C0.63117 71.4156 0.385096 70.5474 1.1252 69.5382L10.5417 60.1084C11.2631 59.4563 12.3206 59.4751 12.824 60.3639C13.3274 61.2528 12.7883 61.8391 12.238 62.5062C10.523 64.579 7.69592 67.1197 5.69916 69.0477C4.66603 70.0437 3.54461 70.9777 2.53213 71.9981L2.53026 72Z" fill="#1A3F70"/>
<path id="Vector_2" d="M13.7801 72H12.9367C11.881 71.4156 11.635 70.5474 12.3751 69.5382L21.7916 60.1084C22.5129 59.4563 23.5705 59.4751 24.0739 60.3639C24.5773 61.2528 24.0382 61.8391 23.4878 62.5062C21.7728 64.579 18.9458 67.1197 16.949 69.0477C15.9159 70.0437 14.7945 70.9777 13.782 71.9981L13.7801 72Z" fill="#1A3F70"/>
<path id="Vector_3" d="M-1.36656e-05 59.0579V58.2141L9.8542 48.1679C11.3814 46.9032 13.1865 48.679 11.8848 50.1993L2.45884 59.6198C1.45201 60.3602 0.584176 60.114 -0.00189209 59.0579H-1.36656e-05Z" fill="#1A3F70"/>
<path id="Vector_4" d="M69.5712 0.0206913C71.1547 -0.0601147 72.0488 0.0150538 71.9981 1.88299C71.9417 3.91817 71.474 6.55658 71.1021 8.58424C68.9738 20.1827 63.6823 31.6384 54.4254 39.1665C59.9687 48.8219 51.1194 56.4157 42.1856 58.1465C41.1281 58.3513 38.6467 58.8117 37.8277 58.1352C36.4264 56.9739 38.5058 55.4066 39.1106 54.3674C39.7831 53.2098 40.2678 51.7459 40.3504 50.4023C40.5533 47.1193 39.3586 48.416 37.3675 49.1056C35.2392 49.8423 32.7334 50.9491 30.5093 50.3929C28.0824 55.8557 21.9813 57.6617 16.5 58.3307C13.6073 58.6839 13.3443 58.3307 13.658 55.4874C14.2572 50.0283 16.192 43.8739 21.5925 41.4723C21.0364 39.2454 22.1447 36.7404 22.8811 34.6113C23.5704 32.6193 24.8666 31.4241 21.5849 31.6271C20.2438 31.7098 18.7786 32.1946 17.6215 32.8674C16.9809 33.2395 15.7205 34.4967 15.2471 34.5718C13.6204 34.8293 13.4495 33.5345 13.5002 32.2585C13.5753 30.3586 14.2591 27.8856 14.9391 26.1041C17.8938 18.3768 24.5453 12.8839 32.816 17.5481C40.3448 8.27981 51.7863 2.99924 63.3874 0.866335C65.3353 0.507406 67.6045 0.11841 69.5712 0.0188121V0.0206913ZM69.0377 2.93159C64.8789 3.26233 60.8252 4.28086 56.8054 5.32382L66.438 15.169C66.7479 15.216 66.6014 15.1201 66.6502 14.9642C67.843 11.0573 68.632 6.99819 69.0377 2.93159ZM53.6684 6.47577C41.654 10.5649 32.5906 19.9704 27.2991 31.3114L27.4099 31.8451L40.3147 44.6895C40.6998 44.7947 42.8863 43.6014 43.401 43.327C53.5332 37.9469 61.6574 29.3401 65.4706 18.4069L53.6684 6.47389V6.47577ZM25.1671 29.3777C26.6792 25.9914 28.7624 22.8794 30.9301 19.882C23.6831 15.4621 17.8431 23.6799 16.733 30.0805C19.3365 28.9793 22.4697 28.2163 25.1671 29.3777ZM37.5422 46.1158L25.8734 34.4422L24.1884 39.8749C24.134 40.3767 24.4514 40.7638 24.7445 41.1284C25.8339 42.4908 29.5758 46.2718 30.932 47.3166C31.3546 47.6436 31.6702 47.8559 32.2337 47.7789C33.9037 47.5459 35.8572 46.4541 37.544 46.1177L37.5422 46.1158ZM41.902 55.26C48.2849 54.1438 56.518 48.3295 52.0962 41.057C49.1001 43.2275 45.9894 45.3096 42.6045 46.8224C43.786 49.5096 42.9783 52.6592 41.902 55.26ZM16.5921 55.401C20.287 54.8898 24.5904 54.0742 26.914 50.8871C27.2691 50.4004 28.3041 48.9139 28.0524 48.3708L23.6174 43.934C23.1854 43.7348 22.4396 44.2234 22.032 44.4565C18.0873 46.6908 17.1537 51.2272 16.5902 55.401H16.5921Z" fill="#1A3F70"/>
<path id="Vector_5" d="M32.5869 57.6786C33.806 57.5019 34.5724 58.7197 34.0089 59.8134L29.6622 64.1863C28.3605 65.0056 26.9272 63.7334 27.5772 62.3822L31.9126 57.998C32.0948 57.8402 32.3521 57.7143 32.5888 57.6786H32.5869Z" fill="#1A3F70"/>
<path id="Vector_6" d="M12.4728 37.8473C13.8139 37.5391 14.7907 38.7324 14.1183 39.9163C13.9567 40.2 10.1059 44.0712 9.77158 44.2892C8.43226 45.1649 7.03096 43.8043 7.75039 42.4081C8.68397 41.6978 11.6162 38.0465 12.4728 37.8491V37.8473Z" fill="#1A3F70"/>
<path id="Vector_7" d="M50.5878 14.2237C59.5329 14.0922 60.0175 27.412 51.6717 28.2502C41.5132 29.2706 41.1525 14.3628 50.5878 14.2237ZM50.586 17.0388C44.9244 17.1873 45.2005 26.2995 51.5195 25.4276C56.2494 24.7755 55.947 16.8979 50.586 17.0388Z" fill="#1A3F70"/>
<path id="Vector_8" d="M42.4279 27.8593C43.6395 27.6244 44.4641 28.7087 43.9964 29.855C43.8368 30.2459 42.1443 31.9879 41.7517 32.251C40.3504 33.1887 38.8871 32.1664 39.5258 30.586C39.7493 30.0354 41.8475 27.972 42.4279 27.8593Z" fill="#1A3F70"/>
<path id="Vector_9" d="M37.7751 36.2217C36.5203 37.5071 34.4785 35.4682 35.7633 34.2091C37.1064 32.8955 39.09 34.8743 37.7751 36.2217Z" fill="#1A3F70"/>
</g>
<defs>
<clipPath id="clip0_1802_5734">
<rect width="72" height="72" fill="white"/>
</clipPath>
</defs>
</svg>
